<?xml version="1.0" encoding="UTF-8"?>
<svg width="223px" height="132px" viewBox="0 0 223 132" version="1.1" xmlns="http://www.w3.org/2000/svg" xmlns:xlink="http://www.w3.org/1999/xlink">
    <title>E6DBFA51-443A-45DE-A4B8-BE6912C35EAA</title>
    <g id="Web" stroke="none" stroke-width="1" fill="none" fill-rule="evenodd">
        <g id="W-Landing" transform="translate(-1055.000000, -222.000000)">
            <g id="illustrations/empty/grey" transform="translate(1055.000000, 222.000000)">
                <path d="M122.856481,31.674005 C126.847762,31.674005 130.083333,34.9059495 130.083333,38.892755 C130.083333,42.8795606 126.847762,46.111505 122.856481,46.111505 L188.930556,46.111505 C192.921836,46.111505 196.157407,49.3434495 196.157407,53.330255 C196.157407,57.3170606 192.921836,60.549005 188.930556,60.549005 L211.643519,60.549005 C215.634799,60.549005 218.87037,63.7809495 218.87037,67.767755 C218.87037,71.7545606 215.634799,74.986505 211.643519,74.986505 L192.027778,74.986505 C188.036498,74.986505 184.800926,78.2184495 184.800926,82.205255 C184.800926,86.1920606 188.036498,89.424005 192.027778,89.424005 L198.222222,89.424005 C202.213502,89.424005 205.449074,92.6559495 205.449074,96.642755 C205.449074,100.629561 202.213502,103.861505 198.222222,103.861505 L144.537037,103.861505 C144.005477,103.861505 143.48732,103.80418 142.988426,103.695381 C142.489532,103.80418 141.971375,103.861505 141.439815,103.861505 L47.4907407,103.861505 C43.4994607,103.861505 40.2638889,100.629561 40.2638889,96.642755 C40.2638889,92.6559495 43.4994607,89.424005 47.4907407,89.424005 L7.22685185,89.424005 C3.23557178,89.424005 0,86.1920606 0,82.205255 C0,78.2184495 3.23557178,74.986505 7.22685185,74.986505 L48.5231481,74.986505 C52.5144282,74.986505 55.75,71.7545606 55.75,67.767755 C55.75,63.7809495 52.5144282,60.549005 48.5231481,60.549005 L22.712963,60.549005 C18.7216829,60.549005 15.4861111,57.3170606 15.4861111,53.330255 C15.4861111,49.3434495 18.7216829,46.111505 22.712963,46.111505 L64.0092593,46.111505 C60.0179792,46.111505 56.7824074,42.8795606 56.7824074,38.892755 C56.7824074,34.9059495 60.0179792,31.674005 64.0092593,31.674005 L122.856481,31.674005 Z M215.773148,89.424005 C219.764428,89.424005 223,92.6559495 223,96.642755 C223,100.629561 219.764428,103.861505 215.773148,103.861505 C211.781868,103.861505 208.546296,100.629561 208.546296,96.642755 C208.546296,92.6559495 211.781868,89.424005 215.773148,89.424005 Z" id="Background" fill="#B3B3B3" opacity="0.100000001"></path>
                <polygon id="Rectangle" fill="#F2F2F2" points="81.5601852 33 150.731481 33 144.537037 42.28125 152.796296 48.46875 79.4953704 48.46875 88.787037 42.28125"></polygon>
                <path d="M54.7175926,114.984375 L76.866966,114.984375 M41.4283719,114.984375 L48.5231481,114.984375 M189.062631,114.984375 L192.027778,114.984375 M161.055556,114.984375 L184.210115,114.984375" id="line" stroke="#D9D9D9" stroke-width="2.58101852" stroke-linecap="round" stroke-linejoin="round"></path>
                <path d="M78.469306,92.0028076 L78.469306,50.53125 C78.469306,48.8226191 79.873019,47.4375 81.6045866,47.4375 L153.335737,47.4375 C154.463269,47.4375 155.377315,48.3609127 155.377315,49.5 L155.377315,124.78125 C155.377315,127.059425 153.549224,128.90625 151.294159,128.90625 L82.5524622,128.90625 C80.2973973,128.90625 78.469306,127.059425 78.469306,124.78125 L78.469306,109.368896 L78.469306,105.1875 M78.469306,100.956757 L78.469306,96.3121033 M78.4908675,104.73007 L78.4908675,91.6870019" id="bag" stroke="#D9D9D9" stroke-width="2.58101852" fill="#FFFFFF" stroke-linecap="round"></path>
                <path d="M152.796296,33 L152.796296,45.375 C152.796296,46.5140873 151.966663,47.4375 150.943257,47.4375 L82.3808167,47.4375 C81.3574116,47.4375 80.5277778,46.5140873 80.5277778,45.375 L80.5277778,33" id="Rectangle" stroke="#D9D9D9" stroke-width="2.58101852" transform="translate(116.662037, 40.218750) rotate(-180.000000) translate(-116.662037, -40.218750) "></path>
                <ellipse id="Oval" stroke="#D9D9D9" stroke-width="2.58101852" fill="#FFFFFF" cx="99.6273148" cy="65.484375" rx="3.61342593" ry="3.609375"></ellipse>
                <ellipse id="Oval" stroke="#D9D9D9" stroke-width="2.58101852" fill="#FFFFFF" cx="133.696759" cy="65.484375" rx="3.61342593" ry="3.609375"></ellipse>
                <path d="M133.180556,85.59375 C133.180556,76.4810516 125.784963,69.09375 116.662037,69.09375 C107.539111,69.09375 100.143519,76.4810516 100.143519,85.59375" id="Oval" stroke="#D9D9D9" stroke-width="2.58101852" stroke-linecap="round" transform="translate(116.662037, 77.343750) scale(1, -1) translate(-116.662037, -77.343750) "></path>
                <path d="M81.6231983,34.027977 L88.9587095,41.2608802 C89.3647193,41.6612108 89.3693232,42.3148788 88.9689926,42.7208885 C88.8994619,42.7914056 88.8201468,42.8515518 88.7334853,42.8994784 L80.5277778,47.4375 L80.5277778,47.4375" id="Path-3" stroke="#D9D9D9" stroke-width="2.58101852" stroke-linecap="round"></path>
                <path d="M145.474778,34.1027527 L152.495374,41.2552407 C152.894785,41.6621551 152.888702,42.315811 152.481787,42.715222 C152.413606,42.7821463 152.336465,42.8392826 152.252573,42.8849955 L143.897814,47.4375 L143.897814,47.4375" id="Path-3" stroke="#D9D9D9" stroke-width="2.58101852" stroke-linecap="round" transform="translate(148.675415, 40.770126) scale(-1, 1) translate(-148.675415, -40.770126) "></path>
                <path d="M143.607467,7.53094482 L132.148148,20.37323 M116.662037,3.09375 L116.662037,20.37323 M89.8194444,7.53094482 L101.278763,20.37323" id="lines" stroke="#D9D9D9" stroke-width="2.58101852" stroke-linecap="round" stroke-linejoin="round"></path>
            </g>
        </g>
    </g>
</svg>